<?xml version="1.0" encoding="utf-8"?>
<!-- Generator: Adobe Illustrator 24.3.0, SVG Export Plug-In . SVG Version: 6.00 Build 0)  -->
<svg version="1.1" id="Layer_1" xmlns="http://www.w3.org/2000/svg" xmlns:xlink="http://www.w3.org/1999/xlink" x="0px" y="0px"
	 viewBox="0 0 1080 1080" style="enable-background:new 0 0 1080 1080;" xml:space="preserve">
<style type="text/css">
	.st0{fill:#F5E7D9;}
	.st1{fill:#FFCC00;}
	.st2{fill:#FFDA40;}
	.st3{fill:#F1E3A7;}
	.st4{fill:#28858D;}
	.st5{fill:#58A4B3;}
</style>
<polyline class="st0" points="810,596.6 851.9,596.6 773,469.3 842.8,353.3 801.2,353.3 801.6,353.3 731.8,469.3 810.7,596.6 "/>
<path class="st0" d="M141.9,596.7V353.3c0,0,176.2,162.8,181,168.8V353.4h36.6v243.2c0,0-177.6-164.1-181.1-169.1v169.2H141.9z"/>
<path class="st0" d="M380.6,596.6V353.3h135.8l19.8,33.6h-116V456h205.3v26.7H420.2v78.6h116l-19.8,35.4H380.6z"/>
<path class="st0" d="M969.1,386.9v209.7h-39.6V386.9h-92.1l20.3-33.6h175.6v33.6H969.1z"/>
<polyline class="st1" points="581.3,596.6 660.2,469.3 590.4,353.3 590.8,353.3 549.2,353.3 619,469.3 540.1,596.6 581.9,596.6 "/>
<polyline class="st2" points="635.2,596.6 714.1,469.3 644.3,353.3 644.7,353.3 603.1,353.3 672.9,469.3 594,596.6 635.8,596.6 "/>
<polyline class="st3" points="687.8,596.6 766.8,469.3 697,353.3 697.3,353.3 655.8,353.3 725.6,469.3 646.7,596.6 688.5,596.6 "/>
<g>
	<path class="st4" d="M229.4,653v85.3c0,9.4-0.6,16.1-1.9,20.1c-1.3,4-3.4,7.6-6.3,10.7c-4.1,4.4-9,7.6-14.9,9.8
		c-5.9,2.1-12.6,3.2-20.2,3.2c-13.2,0-23.4-3-30.8-9c-7.4-6-11.2-14.5-11.5-25.5h16.7v1.1c0,6.5,2.2,11.5,6.7,15.1
		c4.5,3.6,10.9,5.3,19.1,5.3c6,0,11-1,15.2-2.9c4.2-1.9,7.4-4.8,9.6-8.6c1.3-2.2,2.3-4.6,2.8-7.5c0.6-2.8,0.9-6.9,0.9-12.2v-6.8
		v-7.8c-3.4,6.2-7.8,11-13.2,14.3c-5.4,3.3-11.5,5-18.3,5c-12.5,0-22.5-4.2-30.1-12.7c-7.6-8.5-11.4-19.7-11.4-33.8
		c0-14.2,3.7-25.4,11.1-33.7s17.3-12.5,29.7-12.5c7.2,0,13.5,1.6,19,4.9c5.4,3.3,9.7,8.1,12.9,14.4V653H229.4z M215,696.7
		c0-9.7-2.7-17.6-8-23.5c-5.3-5.9-12.3-8.9-21-8.9c-8.9,0-15.9,2.7-20.9,8.3c-5,5.5-7.5,13.2-7.5,23.1c0,10.5,2.5,18.6,7.5,24.3
		c5,5.7,12.2,8.5,21.4,8.5c8.9,0,15.8-2.8,20.8-8.4C212.5,714.4,215,706.6,215,696.7z"/>
	<path class="st4" d="M337,698.7h-68.8v1.3c0,9.3,2.7,16.8,8,22.5c5.3,5.7,12.3,8.6,20.8,8.6c5.8,0,11.1-1.6,15.8-4.7
		c4.7-3.1,8.8-7.9,12.4-14.2l11.3,7.6c-4.4,7.8-9.9,13.7-16.7,17.7c-6.8,4-14.6,6-23.5,6c-13.2,0-23.9-4.4-32.1-13.1
		c-8.2-8.7-12.2-20.2-12.2-34.3c0-13.6,4-24.8,12.2-33.4c8.1-8.7,18.5-13,31.2-13c12.8,0,23,4.1,30.5,12.4
		c7.5,8.2,11.2,19.4,11.2,33.7V698.7z M321.1,686.6c-0.5-7.7-3-13.6-7.6-17.7c-4.6-4.2-10.9-6.2-18.8-6.2c-7.2,0-13.2,2.2-18,6.5
		c-4.8,4.3-7.6,10.2-8.4,17.4H321.1z"/>
	<path class="st4" d="M359.4,739.9V653H374v13.4c3.7-5.5,8.2-9.7,13.5-12.4c5.2-2.7,11.3-4.1,18.2-4.1c10.2,0,18.2,2.7,24,8.1
		c5.8,5.5,8.6,13,8.6,22.7v59.1h-15.2v-51.2c0-8.8-1.9-15.3-5.5-19.6c-3.7-4.3-9.4-6.4-17.1-6.4c-4.4,0-8.5,0.8-12.1,2.4
		c-3.6,1.6-6.6,3.9-9.1,6.9c-1.8,2.3-3.2,4.9-3.9,7.8c-0.8,2.9-1.2,8-1.2,15.2v44.9H359.4z"/>
	<path class="st4" d="M545.3,698.7h-68.8v1.3c0,9.3,2.7,16.8,8,22.5c5.3,5.7,12.3,8.6,20.8,8.6c5.8,0,11.1-1.6,15.8-4.7
		c4.7-3.1,8.8-7.9,12.4-14.2l11.3,7.6c-4.4,7.8-9.9,13.7-16.7,17.7c-6.8,4-14.6,6-23.5,6c-13.2,0-23.9-4.4-32.1-13.1
		c-8.2-8.7-12.2-20.2-12.2-34.3c0-13.6,4-24.8,12.2-33.4c8.1-8.7,18.5-13,31.2-13c12.8,0,23,4.1,30.5,12.4
		c7.5,8.2,11.2,19.4,11.2,33.7V698.7z M529.3,686.6c-0.5-7.7-3-13.6-7.6-17.7c-4.6-4.2-10.9-6.2-18.8-6.2c-7.2,0-13.2,2.2-18,6.5
		c-4.8,4.3-7.6,10.2-8.4,17.4H529.3z"/>
	<path class="st4" d="M567.9,739.9V653h13.2v18c4-7.5,8.2-12.9,12.7-16.1c4.5-3.2,10-4.9,16.4-4.9c1.8,0,3.5,0.2,5.1,0.4
		c1.6,0.3,3.3,0.7,4.9,1.3l-4.9,13.4c-1.7-0.6-3.3-1-4.8-1.3c-1.5-0.3-3-0.4-4.4-0.4c-7.8,0-13.7,2.8-17.7,8.5
		c-3.9,5.6-5.9,14.2-5.9,25.6v42.3H567.9z"/>
	<path class="st4" d="M716.8,653v86.8h-14.4v-15.8c-3.5,6.3-7.9,11.2-13.3,14.5c-5.4,3.3-11.5,5-18.2,5c-12.5,0-22.5-4.3-30.1-12.9
		c-7.6-8.6-11.4-19.9-11.4-34c0-14.3,3.7-25.7,11.1-34.1c7.4-8.4,17.3-12.7,29.7-12.7c7.3,0,13.6,1.6,18.9,4.9
		c5.4,3.3,9.7,8.1,13,14.6V653H716.8z M702.4,697.3c0-9.8-2.7-17.7-8-23.7c-5.4-6-12.3-9-20.9-9c-8.9,0-15.9,2.7-20.9,8.3
		c-5,5.5-7.5,13.2-7.5,23c0,10.5,2.5,18.6,7.5,24.3c5,5.7,12.2,8.6,21.4,8.6c8.9,0,15.8-2.8,20.8-8.3
		C699.9,715,702.4,707.2,702.4,697.3z"/>
	<path class="st4" d="M748.8,665.3h-15.9V653h15.9v-22H764v22h16v12.2h-16v74.6h-15.2V665.3z"/>
	<path class="st4" d="M796.5,632.1c0-2.3,0.8-4.3,2.5-5.9c1.6-1.6,3.7-2.5,6-2.5c2.3,0,4.3,0.8,6,2.5c1.6,1.7,2.5,3.7,2.5,6.1
		c0,2.3-0.8,4.3-2.4,5.9c-1.6,1.6-3.6,2.4-6,2.4c-2.4,0-4.4-0.8-6-2.4C797.3,636.6,796.5,634.5,796.5,632.1z M797.6,739.9V653h15
		v86.8H797.6z"/>
	<path class="st4" d="M836.9,696.7c0-6.4,1.2-12.4,3.5-18.1c2.4-5.7,5.8-10.7,10.3-15.1c4.5-4.4,9.6-7.8,15.3-10.1
		c5.7-2.3,11.8-3.5,18.2-3.5c6.3,0,12.3,1.2,18,3.5c5.7,2.4,10.8,5.8,15.4,10.3c4.5,4.4,7.9,9.4,10.3,15s3.5,11.7,3.5,18
		c0,6.3-1.2,12.3-3.5,17.9c-2.3,5.6-5.8,10.6-10.3,15c-4.6,4.6-9.8,8-15.5,10.4c-5.7,2.4-11.7,3.6-17.9,3.6
		c-6.4,0-12.5-1.2-18.2-3.6c-5.7-2.4-10.8-5.8-15.3-10.2c-4.5-4.6-7.9-9.6-10.3-15.2C838.1,709.1,836.9,703.1,836.9,696.7z
		 M852.7,696.7c0,9.2,3.1,16.9,9.2,23.3c6.1,6.4,13.6,9.6,22.3,9.6c8.7,0,16-3.2,22.1-9.6c6.1-6.3,9.1-14.1,9.1-23.3
		c0-9.2-3-16.9-9.1-23.3c-6.1-6.4-13.4-9.6-22.1-9.6c-8.8,0-16.3,3.2-22.4,9.6C855.7,679.8,852.7,687.5,852.7,696.7z"/>
	<path class="st4" d="M954.5,739.9V653H969v13.4c3.7-5.5,8.2-9.7,13.5-12.4c5.2-2.7,11.3-4.1,18.2-4.1c10.2,0,18.2,2.7,24,8.1
		c5.8,5.5,8.6,13,8.6,22.7v59.1h-15.2v-51.2c0-8.8-1.9-15.3-5.5-19.6c-3.7-4.3-9.4-6.4-17.1-6.4c-4.4,0-8.5,0.8-12.1,2.4
		c-3.6,1.6-6.6,3.9-9.1,6.9c-1.8,2.3-3.2,4.9-3.9,7.8c-0.8,2.9-1.2,8-1.2,15.2v44.9H954.5z"/>
</g>
<path class="st1" d="M773,468.7"/>
<g>
	<path class="st4" d="M84.4,470.4v6.7h-4.8v-6.7H65.8v-6.4h13.8v-6.7h4.8v6.7h29.4v6.4H84.4z"/>
	<path class="st4" d="M113.8,442.1h-58V436h29.1c-2.2-1.6-3.8-3.5-4.9-5.7c-1.1-2.2-1.6-4.8-1.6-7.6c0-4.3,1.1-7.7,3.2-10.1
		c2.1-2.4,5.1-3.6,8.9-3.6h23.3v6.4H93.7c-3.5,0-6,0.8-7.7,2.3c-1.7,1.6-2.5,3.9-2.5,7.2c0,1.9,0.3,3.6,1,5.1
		c0.6,1.5,1.5,2.8,2.7,3.8c0.9,0.8,1.9,1.3,3.1,1.7c1.1,0.3,3.1,0.5,6,0.5h17.7V442.1z"/>
	<path class="st4" d="M97.6,356v28.9h0.5c3.7,0,6.6-1.1,8.9-3.3c2.3-2.2,3.4-5.1,3.4-8.7c0-2.4-0.6-4.6-1.9-6.6
		c-1.2-2-3.1-3.7-5.6-5.2l3-4.7c3.1,1.8,5.4,4.2,7,7c1.6,2.8,2.4,6.1,2.4,9.9c0,5.5-1.7,10-5.2,13.5c-3.4,3.4-8,5.1-13.6,5.1
		c-5.4,0-9.8-1.7-13.2-5.1c-3.4-3.4-5.1-7.8-5.1-13.1c0-5.4,1.6-9.7,4.9-12.8c3.2-3.1,7.7-4.7,13.3-4.7H97.6z M92.8,362.7
		c-3,0.2-5.3,1.3-7,3.2c-1.6,1.9-2.5,4.6-2.5,7.9c0,3,0.9,5.5,2.6,7.6c1.7,2,4,3.2,6.9,3.5V362.7z"/>
</g>
<rect x="76.4" y="561.6" transform="matrix(-1 -1.224647e-16 1.224647e-16 -1 189.075 1138.7848)" class="st3" width="36.3" height="15.7"/>
<rect x="76.4" y="501" transform="matrix(-1 -1.224647e-16 1.224647e-16 -1 189.075 1017.6106)" class="st0" width="36.3" height="15.7"/>
<rect x="76.4" y="521.2" transform="matrix(-1 -1.224647e-16 1.224647e-16 -1 189.075 1058.002)" class="st4" width="36.3" height="15.7"/>
<rect x="76.4" y="541.4" transform="matrix(-1 -1.224647e-16 1.224647e-16 -1 189.075 1098.3934)" class="st5" width="36.3" height="15.7"/>
<rect x="76.4" y="581" transform="matrix(-1 -1.224647e-16 1.224647e-16 -1 189.075 1177.5903)" class="st1" width="36.3" height="15.7"/>
<g>
</g>
<g>
</g>
<g>
</g>
<g>
</g>
<g>
</g>
<g>
</g>
</svg>
